# xmcd CD database file
#
# Track frame offsets:
#	183
#	7590
#	31318
#	49610
#	70898
#	83578
#	102975
#	120053
#	136435
#	151980
#	168395
#	189558
#
# Disc length: 2789 seconds
#
# Revision: 4
# Processed by: cddbd v1.5.2PL0 Copyright (c) Steve Scherf et al.
# Submitted via: CDex 1.70beta2
#
DISCID=850ae30c
DTITLE=Viktor Lazlo - She
DYEAR=1985
DGENRE=Blues
TTITLE0=She
TTITLE1=Sweet, Soft N' Lazy
TTITLE2=Ain't Gonna Come
TTITLE3=Stories
TTITLE4=Putthe Blame On Mame
TTITLE5=I Don't Wanna Love Again
TTITLE6=Pleurer Des Rivieres
TTITLE7=Last Call For An Angel
TTITLE8=Backdoorman
TTITLE9=Loser
TTITLE10=Canoë Rose
TTITLE11=Slow Motion
EXTD=YEAR: 1985
EXTT0=
EXTT1=
EXTT2=
EXTT3=
EXTT4=
EXTT5=
EXTT6=
EXTT7=
EXTT8=
EXTT9=
EXTT10=
EXTT11=
PLAYORDER=
